<svg xmlns="http://www.w3.org/2000/svg" viewBox="0 0 1382.41 841.89"><defs><style>.cls-1{fill:snow;}</style></defs><title>Ресурс 2</title><g id="Шар_2" data-name="Шар 2"><g id="Шар_2-2" data-name="Шар 2"><path class="cls-1" d="M842.87,832l59.54-295.9a6.21,6.21,0,0,1,6.09-5h218.87l42.06-202.36H943.2l21.6-125,343.12.22a12.33,12.33,0,0,0,11.73-8.55L1382.41,0H643.3a27.51,27.51,0,0,0-27.51,27.51V55.34a26.34,26.34,0,0,0,26.34,26.34H761.3a18.19,18.19,0,0,1,18.19,18.2v24a20,20,0,0,1-19.93,20l-365.12,1.35a25.44,25.44,0,0,0-25.35,25.44V197a28.7,28.7,0,0,0,28.66,28.7l443.9.68a22,22,0,0,1,22,22v35.24A22.37,22.37,0,0,1,841.26,306H661.45a25.2,25.2,0,0,0-25.2,25.2v30A27.79,27.79,0,0,0,664,389h76.54a19.58,19.58,0,0,1,19.59,19.58v42.24a18.89,18.89,0,0,1-18.89,18.89H27.47A27.47,27.47,0,0,0,0,497.2v28.23a28.42,28.42,0,0,0,28.42,28.42h757a12.31,12.31,0,0,1,12.31,12.31v35.62a12.31,12.31,0,0,1-12.31,12.32h-411A26.91,26.91,0,0,0,347.49,641v28.23a27.85,27.85,0,0,0,27.86,27.85H684.19a12.32,12.32,0,0,1,12.32,12.32v58.35a12.32,12.32,0,0,1-12.32,12.32H525.8A16.87,16.87,0,0,0,508.93,797v23.31a21.62,21.62,0,0,0,21.62,21.63H830.8A12.31,12.31,0,0,0,842.87,832Z"/><rect class="cls-1" x="245.18" y="778.94" width="208.04" height="62.95" rx="24.44"/><rect class="cls-1" x="225.85" y="308.29" width="367.2" height="80.72" rx="39.79"/><rect class="cls-1" x="430.48" width="125.05" height="80.92" rx="30.23"/></g></g></svg>