<svg xmlns="http://www.w3.org/2000/svg" width="371.656" height="259.761" viewBox="0 0 371.656 259.761">
  <g id="aeroplane" transform="translate(0 -55.948)">
    <g id="Group_3" data-name="Group 3">
      <g id="Group_2" data-name="Group 2">
        <g id="Group_1" data-name="Group 1">
          <path id="Path_1" data-name="Path 1" d="M37.833,212.348c-.01.006-.021.01-.032.017a8.717,8.717,0,0,0,6.772,16.006l121.85-40.541-22.784,37.207a7.056,7.056,0,0,0,9.273,9.946l23.894-12.416a7.025,7.025,0,0,0,1.844-1.383l70.785-73.941,87.358-45.582c33.085-17.835,29.252-31.545,27.29-35.321-1.521-2.928-4.922-6.854-12.479-8.93-7.665-2.106-18.021-1.938-31.653.514a41,41,0,0,1-9.723.676c-9.351-.256-15.694.371-47.188,16.736L90.788,164.851l-66.8-34.668a8.714,8.714,0,0,0-8.035,0L4.7,136.037a8.717,8.717,0,0,0-2.778,13.191l46.364,57.749Z" fill="#007fff"/>
          <path id="Path_2" data-name="Path 2" d="M355.052,282.5H28.948a16.6,16.6,0,0,0,0,33.208h326.1a16.6,16.6,0,0,0,0-33.208Z" fill="#007fff"/>
        </g>
      </g>
    </g>
  </g>
</svg>
