<svg xmlns="http://www.w3.org/2000/svg" width="538.429" height="612" viewBox="0 0 538.429 612">
  <g id="boxes" transform="translate(-36.787 -0.001)">
    <g id="Group_4" data-name="Group 4">
      <path id="Path_3" data-name="Path 3" d="M40.121,105.553A66.106,66.106,0,1,1,165.675,64.127l129.9,393.7a86.8,86.8,0,0,0-37.831-1.431L131.984,75.244A30.628,30.628,0,1,0,73.813,94.437a17.739,17.739,0,1,1-33.692,11.116Zm511.792,308.84L339.085,484.615A86.927,86.927,0,0,1,356.427,514.9c.135.411.211.826.34,1.238L563.03,448.085a17.739,17.739,0,1,0-11.117-33.692ZM339.582,520.465a69.683,69.683,0,1,1-88.008-44.34A69.684,69.684,0,0,1,339.582,520.465Zm-33.087,10.916a34.842,34.842,0,1,0-22.17,44.005A34.841,34.841,0,0,0,306.495,531.381ZM498.127,147.345l72.256,219a8.87,8.87,0,0,1-5.644,11.2l-227.42,75.035a8.868,8.868,0,0,1-11.2-5.644l-72.256-219a8.869,8.869,0,0,1,5.644-11.2L486.925,141.7A8.872,8.872,0,0,1,498.127,147.345ZM468.044,274.559l-77.438-42.6-36.864,80.319,24.407,11.233,15.939-34.747,28.781,87.232,27.545-9.088-28.777-87.219,33.477,18.427ZM400.472,143.908,354.276,3.9A5.67,5.67,0,0,0,347.114.288L307.5,13.357l-.194.356-.332-.182-20.9,6.9,17.21,52.159-23.573,7.778L262.506,28.2,241.6,35.1l-.158.344-.37-.17L201.718,48.262a5.67,5.67,0,0,0-3.608,7.162l46.2,140.013a5.67,5.67,0,0,0,7.162,3.608l145.4-47.974A5.672,5.672,0,0,0,400.472,143.908Z" fill="#007fff"/>
    </g>
  </g>
</svg>
