<svg xmlns="http://www.w3.org/2000/svg" width="498.342" height="612" viewBox="0 0 498.342 612">
  <g id="gift" transform="translate(-56.829)">
    <g id="Group_5" data-name="Group 5">
      <path id="Path_4" data-name="Path 4" d="M310.634,43.714H297.17a13.027,13.027,0,0,1-13.026-13.026V30.25A30.25,30.25,0,0,0,253.893,0h-.7a30.25,30.25,0,0,0-30.25,30.25v.438a13.028,13.028,0,0,1-13.026,13.027H196.454a25.966,25.966,0,0,0-25.966,25.966v.525a25.966,25.966,0,0,0,25.966,25.966H310.637A25.966,25.966,0,0,0,336.6,70.206V69.68A25.968,25.968,0,0,0,310.634,43.714Zm-57.091,0A13.115,13.115,0,1,1,266.657,30.6,13.114,13.114,0,0,1,253.543,43.714ZM311.929,550.8H91.8a34.971,34.971,0,0,1-34.971-34.971V96.171c0-19.314,15.657-34.971,26.228-34.971h70.854a45.116,45.116,0,0,0-.91,9.008,43.5,43.5,0,0,0,43.454,43.45H310.633a43.842,43.842,0,0,0,42.6-52.458h53.312c28.059,0,43.715,15.657,43.715,34.971V358.9c-2.906-.181-5.791-.442-8.742-.442a139.189,139.189,0,0,0-34.973,4.6V157.371h-306V507.086H302.071A138.847,138.847,0,0,0,311.929,550.8ZM441.515,384.686A113.657,113.657,0,1,0,555.171,498.343,113.657,113.657,0,0,0,441.515,384.686Zm74.267,90.3-69.943,78.686a17.488,17.488,0,0,1-23.992,2.032l-43.715-34.971a17.485,17.485,0,0,1,21.849-27.3l30.748,24.6,58.916-66.28a17.487,17.487,0,0,1,26.137,23.239ZM362.829,306H222.944a8.743,8.743,0,0,1-8.743-8.743v-8.743a8.743,8.743,0,0,1,8.743-8.743H362.829a8.745,8.745,0,0,1,8.744,8.743v8.743A8.746,8.746,0,0,1,362.829,306Zm0-78.686H222.944a8.743,8.743,0,0,1-8.743-8.743v-8.743a8.743,8.743,0,0,1,8.743-8.743H362.829a8.745,8.745,0,0,1,8.744,8.743v8.743A8.745,8.745,0,0,1,362.829,227.314ZM319.114,375.943h-96.17A8.743,8.743,0,0,1,214.2,367.2v-8.743a8.743,8.743,0,0,1,8.743-8.743h96.17a8.743,8.743,0,0,1,8.744,8.743V367.2A8.745,8.745,0,0,1,319.114,375.943Zm-17.485,78.686H222.943a8.743,8.743,0,0,1-8.743-8.743v-8.743a8.743,8.743,0,0,1,8.743-8.743h78.686a8.743,8.743,0,0,1,8.743,8.743v8.743A8.743,8.743,0,0,1,301.629,454.629ZM197.461,194.981l-32.2,36.224a8.049,8.049,0,0,1-11.045.936l-20.125-16.1a8.049,8.049,0,0,1,10.058-12.57L158.3,214.8l27.123-30.513a8.051,8.051,0,0,1,12.033,10.7Zm0,77.786-32.2,36.223a8.05,8.05,0,0,1-11.045.935l-20.125-16.1a8.049,8.049,0,0,1,10.058-12.57L158.3,292.58l27.123-30.513a8.051,8.051,0,0,1,12.033,10.7Zm0,74.389-32.2,36.224a8.05,8.05,0,0,1-11.045.935l-20.125-16.1a8.049,8.049,0,0,1,10.058-12.57L158.3,366.968l27.123-30.513a8.051,8.051,0,0,1,12.033,10.7Zm0,74.914-32.2,36.224a8.05,8.05,0,0,1-11.045.935l-20.125-16.1a8.049,8.049,0,0,1,10.058-12.57L158.3,441.882l27.123-30.513a8.051,8.051,0,0,1,12.033,10.7Z" fill="#007fff"/>
    </g>
  </g>
</svg>
