<svg xmlns="http://www.w3.org/2000/svg" width="25.771" height="24.485" viewBox="0 0 25.771 24.485">
  <g id="list" transform="translate(0 -0.643)">
    <g id="Group_5" data-name="Group 5">
      <g id="Group_2" data-name="Group 2">
        <g id="Group_1" data-name="Group 1">
          <path id="Path_1" data-name="Path 1" d="M24.171,13.728v9.8H5.371v-9.8h18.8m1.6-1.6h-22v13h22v-13Z" fill="#007fff"/>
        </g>
      </g>
      <g id="Group_3" data-name="Group 3">
        <path id="Path_2" data-name="Path 2" d="M19.771,12.128l2.252,2.252a1.212,1.212,0,0,0-.05.248,1.3,1.3,0,0,0,1.3,1.3,1.271,1.271,0,0,0,.247-.049l2.253,2.252v-6Z" fill="#007fff"/>
        <circle id="Ellipse_1" data-name="Ellipse 1" cx="1.298" cy="1.298" r="1.298" transform="translate(19.973 17.33)" fill="#007fff"/>
        <ellipse id="Ellipse_2" data-name="Ellipse 2" cx="3.926" cy="3.414" rx="3.926" ry="3.414" transform="translate(10.845 15.214)" fill="#007fff"/>
        <circle id="Ellipse_3" data-name="Ellipse 3" cx="1.297" cy="1.297" r="1.297" transform="translate(6.974 17.331)" fill="#007fff"/>
        <path id="Path_3" data-name="Path 3" d="M3.771,18.128l2.252-2.252a1.212,1.212,0,0,0,.248.05,1.3,1.3,0,0,0,1.3-1.3,1.2,1.2,0,0,0-.05-.247l2.253-2.253h-6Z" fill="#007fff"/>
        <path id="Path_4" data-name="Path 4" d="M7.569,22.628a1.3,1.3,0,0,0-1.3-1.3,1.271,1.271,0,0,0-.247.049L3.771,19.128v6h6L7.519,22.876A1.225,1.225,0,0,0,7.569,22.628Z" fill="#007fff"/>
        <path id="Path_5" data-name="Path 5" d="M23.271,21.33a1.3,1.3,0,0,0-1.3,1.3,1.2,1.2,0,0,0,.05.247l-2.253,2.253h6v-6L23.519,21.38A1.212,1.212,0,0,0,23.271,21.33Z" fill="#007fff"/>
      </g>
      <g id="Group_4" data-name="Group 4">
        <circle id="Ellipse_4" data-name="Ellipse 4" cx="1.297" cy="1.297" r="1.297" transform="translate(17.176 7.208)" fill="#007fff"/>
        <path id="Path_6" data-name="Path 6" d="M2.271,12.128a1.5,1.5,0,0,1,1.5-1.5h.82l.037-.128L16.2,4.16l.885.258a1.185,1.185,0,0,0,.077.241,1.3,1.3,0,0,0,1.762.515,1.144,1.144,0,0,0,.191-.162l.887.26,2.017,3.682-.259.886a1.189,1.189,0,0,0-.24.075,1.286,1.286,0,0,0-.591.713h3.831L22.179,5.905h0L19.3.643,14.033,3.525h0l-8.771,4.8L0,11.21l2.271,4.147Z" fill="#007fff"/>
        <path id="Path_7" data-name="Path 7" d="M11.131,8.634a4.231,4.231,0,0,0-1.85,1.994h7.233a2.968,2.968,0,0,0-.3-.885A3.7,3.7,0,0,0,11.131,8.634Z" fill="#007fff"/>
      </g>
    </g>
  </g>
</svg>
