<svg xmlns="http://www.w3.org/2000/svg" width="485.21" height="485.214" viewBox="0 0 485.21 485.214">
  <g id="search" transform="translate(-0.001)">
    <g id="Group_7" data-name="Group 7">
      <g id="Group_6" data-name="Group 6">
        <path id="Path_8" data-name="Path 8" d="M471.882,407.567,360.567,296.243a214.267,214.267,0,0,1-64.331,64.321L407.56,471.888a45.482,45.482,0,0,0,64.322-64.321Z" fill="#007fff"/>
        <path id="Path_9" data-name="Path 9" d="M363.909,181.955C363.909,81.473,282.44,0,181.956,0S0,81.473,0,181.955,81.474,363.906,181.956,363.906,363.909,282.437,363.909,181.955ZM181.956,318.416c-75.252,0-136.465-61.208-136.465-136.46S106.7,45.491,181.956,45.491,318.424,106.7,318.424,181.956,257.206,318.416,181.956,318.416Z" fill="#007fff"/>
        <path id="Path_10" data-name="Path 10" d="M75.817,181.955h30.322a75.9,75.9,0,0,1,75.816-75.814V75.816A106.268,106.268,0,0,0,75.817,181.955Z" fill="#007fff"/>
      </g>
    </g>
  </g>
</svg>
