<svg id="time" xmlns="http://www.w3.org/2000/svg" width="512" height="512" viewBox="0 0 512 512">
  <g id="Group_9" data-name="Group 9">
    <g id="Group_8" data-name="Group 8">
      <path id="Path_11" data-name="Path 11" d="M437.019,74.981A256,256,0,1,0,74.981,437.019,256,256,0,1,0,437.019,74.981ZM256,470.636C137.65,470.636,41.364,374.35,41.364,256S137.65,41.364,256,41.364,470.636,137.65,470.636,256,374.35,470.636,256,470.636Z" fill="#007fff"/>
    </g>
  </g>
  <g id="Group_11" data-name="Group 11">
    <g id="Group_10" data-name="Group 10">
      <path id="Path_12" data-name="Path 12" d="M341.221,311.97l-64.538-64.537V114.809a20.682,20.682,0,0,0-41.364,0V256a20.682,20.682,0,0,0,6.058,14.625l70.594,70.6a20.683,20.683,0,1,0,29.25-29.25Z" fill="#007fff"/>
    </g>
  </g>
</svg>
